<?xml version="1.0" encoding="utf-8" standalone="no"?>
<!DOCTYPE svg PUBLIC "-//W3C//DTD SVG 1.1//EN" "http://www.w3.org/Graphics/SVG/1.1/DTD/svg11.dtd">

<svg width="210mm" height="297mm" viewBox="0 0 210 297" xmlns="http://www.w3.org/2000/svg" xmlns:xlink="http://www.w3.org/1999/xlink" version="1.1" style="stroke:black; fill:none; stroke-width:0.5pt; stroke-linejoin:round; text-anchor:middle" font-family="Helvetica, Arial, FreeSans, Sans, sans, sans-serif">

<g>

<rect x="15.0" y="58.5" width="30.0" height="30.0" fill="black" stroke="none" />

<rect x="15.0" y="118.5" width="30.0" height="30.0" fill="black" stroke="none" />

<rect x="15.0" y="178.5" width="30.0" height="30.0" fill="black" stroke="none" />

<rect x="45.0" y="88.5" width="30.0" height="30.0" fill="black" stroke="none" />

<rect x="45.0" y="148.5" width="30.0" height="30.0" fill="black" stroke="none" />

<rect x="45.0" y="208.5" width="30.0" height="30.0" fill="black" stroke="none" />

<rect x="75.0" y="58.5" width="30.0" height="30.0" fill="black" stroke="none" />

<rect x="75.0" y="118.5" width="30.0" height="30.0" fill="black" stroke="none" />

<rect x="75.0" y="178.5" width="30.0" height="30.0" fill="black" stroke="none" />

<rect x="105.0" y="88.5" width="30.0" height="30.0" fill="black" stroke="none" />

<rect x="105.0" y="148.5" width="30.0" height="30.0" fill="black" stroke="none" />

<rect x="105.0" y="208.5" width="30.0" height="30.0" fill="black" stroke="none" />

<rect x="135.0" y="58.5" width="30.0" height="30.0" fill="black" stroke="none" />

<rect x="135.0" y="118.5" width="30.0" height="30.0" fill="black" stroke="none" />

<rect x="135.0" y="178.5" width="30.0" height="30.0" fill="black" stroke="none" />

<rect x="165.0" y="88.5" width="30.0" height="30.0" fill="black" stroke="none" />

<rect x="165.0" y="148.5" width="30.0" height="30.0" fill="black" stroke="none" />

<rect x="165.0" y="208.5" width="30.0" height="30.0" fill="black" stroke="none" />

</g>

</svg>

